<?xml version="1.0" standalone="no"?>
<!DOCTYPE svg PUBLIC "-//W3C//DTD SVG 20010904//EN"
 "http://www.w3.org/TR/2001/REC-SVG-20010904/DTD/svg10.dtd">
<svg version="1.0" xmlns="http://www.w3.org/2000/svg"
 width="318.000000pt" height="159.000000pt" viewBox="0 0 318.000000 159.000000"
 preserveAspectRatio="xMidYMid meet">

<g transform="translate(0.000000,159.000000) scale(0.100000,-0.100000)"
fill="#fff" stroke="none">
<path d="M597 1209 c-46 -24 -87 -84 -94 -138 l-6 -40 30 8 c64 18 102 53 128
113 32 78 14 95 -58 57z"/>
<path d="M269 993 c-135 -69 -167 -265 -74 -459 19 -39 55 -94 81 -123 40 -44
51 -51 84 -51 20 0 57 7 80 15 54 19 101 19 147 0 19 -8 54 -15 76 -15 35 0
46 6 82 43 22 23 56 73 75 109 l35 67 -43 37 c-23 20 -49 48 -56 63 -36 72
-25 155 31 221 35 40 35 41 17 62 -27 30 -93 58 -139 58 -22 0 -68 -10 -102
-22 l-62 -21 -66 21 c-84 28 -100 28 -166 -5z"/>
<path d="M1993 840 c-58 -35 -55 -108 5 -145 90 -55 97 -61 100 -87 6 -49 -59
-71 -129 -43 -11 4 -18 0 -22 -15 -15 -59 160 -51 193 9 5 11 10 35 10 54 0
37 -23 64 -80 92 -50 25 -70 45 -70 71 0 32 33 48 85 40 36 -4 44 -2 48 13 9
36 -88 43 -140 11z"/>
<path d="M1032 688 c-29 -90 -52 -166 -52 -169 0 -3 11 -4 25 -1 20 3 28 14
39 51 l13 46 58 0 58 0 17 -49 c14 -42 20 -49 43 -50 23 -1 26 2 21 19 -4 11
-28 85 -53 165 l-47 145 -35 3 -35 3 -52 -163z m127 -25 c1 -9 -14 -13 -44
-13 -32 0 -45 4 -45 14 0 12 20 86 37 136 5 14 51 -108 52 -137z"/>
<path d="M2248 813 c-11 -3 -18 -14 -18 -29 0 -17 -5 -24 -20 -24 -13 0 -20
-7 -20 -20 0 -13 7 -20 20 -20 18 0 20 -7 20 -85 0 -96 16 -125 69 -125 48 0
50 30 4 44 -21 7 -23 13 -23 87 l0 79 30 0 c23 0 30 4 30 20 0 16 -7 20 -30
20 -27 0 -30 3 -30 30 0 17 -3 29 -7 29 -5 -1 -16 -3 -25 -6z"/>
<path d="M1310 585 l0 -175 25 0 c24 0 25 2 25 66 l0 65 22 -15 c38 -27 92
-20 127 15 28 28 31 36 31 96 0 58 -3 67 -29 94 -36 36 -86 39 -125 8 l-26
-20 0 20 c0 16 -6 21 -25 21 l-25 0 0 -175z m162 118 c12 -11 18 -30 18 -62 0
-62 -21 -91 -65 -91 -24 0 -39 7 -49 22 -27 38 -17 117 18 140 19 13 59 9 78
-9z"/>
<path d="M1600 585 l0 -175 25 0 c24 0 25 2 25 66 l0 65 22 -15 c36 -25 83
-20 120 13 31 28 33 33 33 101 0 66 -2 74 -28 96 -36 31 -98 33 -127 4 -11
-11 -22 -20 -25 -20 -3 0 -5 9 -5 20 0 13 -7 20 -20 20 -19 0 -20 -7 -20 -175z
m164 113 c9 -12 16 -41 16 -63 0 -56 -22 -85 -65 -85 -43 0 -65 29 -65 85 0
56 22 85 65 85 24 0 39 -7 49 -22z"/>
<path d="M2429 745 c-31 -17 -54 -66 -54 -116 0 -73 47 -119 122 -119 70 0
113 52 113 136 0 39 -5 51 -34 80 -28 28 -41 34 -77 34 -24 -1 -56 -7 -70 -15z
m106 -40 c35 -34 35 -101 0 -139 -30 -32 -49 -33 -80 -1 -19 18 -25 35 -25 70
0 35 6 52 25 70 13 14 31 25 40 25 9 0 27 -11 40 -25z"/>
<path d="M2667 753 c-2 -5 -2 -61 1 -125 4 -108 6 -118 23 -118 16 0 19 8 20
63 2 97 10 120 46 137 18 8 33 23 33 33 0 24 -33 22 -56 -4 l-18 -20 -8 20
c-7 20 -33 29 -41 14z"/>
<path d="M2871 734 c-64 -54 -59 -174 9 -209 30 -16 117 -20 137 -7 23 15 -3
29 -50 28 -42 -1 -52 3 -73 27 -13 15 -24 32 -24 38 0 5 39 9 86 9 l87 0 -6
47 c-10 88 -98 124 -166 67z m103 -20 c9 -8 16 -24 16 -35 0 -17 -7 -19 -60
-19 -52 0 -59 2 -53 18 18 49 66 68 97 36z"/>
</g>
</svg>
